<!DOCTYPE svg PUBLIC "-//W3C//DTD SVG 20010904//EN" "http://www.w3.org/TR/2001/REC-SVG-20010904/DTD/svg10.dtd">
<svg version="1.0" xmlns="http://www.w3.org/2000/svg" width="1600px" height="1523px" viewBox="0 0 16000 15230" preserveAspectRatio="xMidYMid meet">
<g id="layer101" fill="#24303f" stroke="none">
 <path d="M5765 13480 l-1620 -1620 -1687 0 -1688 0 0 -1688 0 -1687 -385 -385 c-215 -215 -385 -393 -385 -403 0 -9 170 -187 385 -402 l385 -384 0 -1996 0 -1995 485 0 485 0 0 -355 0 -355 1865 0 1865 0 950 -950 c801 -801 953 -949 968 -941 9 6 104 98 211 206 107 107 197 195 202 195 4 0 169 -162 367 -360 198 -198 366 -360 374 -360 7 0 510 497 1118 1105 l1104 1105 1133 0 1133 0 0 1133 0 1133 1457 1457 1457 1457 -1457 1457 -1457 1457 0 423 0 423 -423 0 -423 0 -62 62 -62 62 0 293 0 293 -293 0 -293 0 -1462 1462 -1462 1462 -205 -204 c-112 -113 -208 -206 -212 -207 -5 -2 -173 161 -373 362 -201 201 -367 365 -370 365 -3 0 -734 -729 -1625 -1620z m1986 1158 l326 -326 -1225 -1226 -1226 -1226 -686 2 -685 3 1565 1566 c1502 1503 1566 1566 1584 1550 11 -9 167 -163 347 -343z m2215 -1365 l1407 -1408 -369 -3 -370 -2 -1225 1225 c-673 674 -1225 1227 -1227 1229 -4 5 359 366 368 366 5 0 642 -633 1416 -1407z m-639 -210 l1197 -1198 -1196 -3 c-658 -1 -1737 -1 -2399 0 l-1202 3 1194 1196 c657 658 1197 1197 1202 1198 4 0 546 -538 1204 -1196z m-5567 -1588 l-325 -325 -847 0 -848 0 0 -848 0 -847 -465 -465 -465 -465 0 1638 0 1637 1637 0 1638 0 -325 -325z m1799 320 c-2 -2 -148 -149 -324 -325 l-319 -320 -684 0 c-544 0 -682 3 -676 13 5 6 148 152 319 324 l310 312 689 1 c379 0 687 -2 685 -5z m5353 -317 l322 -323 -1551 -3 c-853 -1 -2252 -1 -3109 0 l-1557 3 319 321 319 322 2468 1 2467 1 322 -322z m813 36 c275 -277 285 -288 285 -325 l0 -39 -333 0 -333 0 -325 325 -325 325 373 0 373 0 285 -286z m285 51 c0 -129 -1 -235 -3 -235 -3 0 -439 436 -466 465 -2 3 102 5 232 5 l237 0 0 -235z m-8640 -478 c0 -1 -355 -358 -790 -792 l-790 -790 0 793 0 792 790 0 c435 0 790 -1 790 -3z m-42 -1524 c-841 -841 -1530 -1530 -1533 -1532 -3 -2 -5 305 -5 683 l0 687 844 845 844 844 689 0 689 0 -1528 -1527z m7825 1508 c-10 -10 -33 -36 -51 -57 -69 -81 -151 -170 -252 -273 -134 -137 -195 -202 -365 -386 -76 -82 -162 -174 -191 -203 -30 -29 -54 -56 -54 -59 0 -4 -29 -35 -65 -69 -36 -34 -65 -65 -65 -69 0 -3 -28 -35 -62 -70 -35 -35 -92 -94 -127 -132 -34 -37 -87 -93 -115 -123 -29 -30 -113 -120 -186 -200 -73 -80 -141 -152 -149 -161 -9 -9 -59 -63 -111 -119 -52 -57 -124 -134 -160 -171 -36 -38 -94 -100 -130 -138 -36 -39 -83 -90 -105 -113 -34 -37 -156 -108 -185 -108 -5 0 -36 -16 -69 -35 -32 -19 -66 -35 -74 -35 -9 0 -17 -4 -19 -8 -1 -4 -28 -23 -58 -41 -30 -19 -68 -44 -85 -57 -16 -13 -46 -36 -65 -51 -56 -44 -244 -236 -259 -265 -16 -32 -11 -39 59 -83 25 -15 55 -36 66 -47 12 -11 36 -27 52 -36 17 -9 77 -48 132 -87 56 -38 113 -77 128 -85 14 -8 35 -23 47 -33 11 -10 36 -28 55 -40 19 -11 48 -31 63 -44 16 -13 37 -23 48 -23 11 0 49 29 84 65 36 36 69 65 73 65 5 0 21 13 37 30 16 16 37 30 46 30 10 0 21 5 24 10 11 18 83 50 183 82 87 28 110 31 227 32 114 1 141 -3 225 -27 97 -29 242 -94 293 -131 239 -175 367 -441 354 -736 -7 -166 -63 -340 -144 -447 -18 -24 -33 -46 -33 -49 0 -9 -151 -154 -160 -154 -4 0 -20 -11 -35 -25 -31 -26 -185 -105 -207 -105 -7 0 -40 -10 -73 -21 -119 -40 -234 -36 -410 14 -56 16 -175 78 -218 114 -16 13 -33 23 -38 23 -10 0 -167 117 -209 156 -14 13 -45 40 -69 61 -52 46 -521 512 -521 518 0 7 -549 555 -556 555 -5 0 -29 23 -204 196 -36 35 -71 64 -77 64 -7 0 -13 4 -13 9 0 9 -94 93 -174 156 -21 17 -55 45 -76 63 -20 17 -42 32 -46 32 -5 0 -17 8 -25 19 -9 10 -42 36 -74 57 -80 55 -94 64 -166 107 -35 22 -74 47 -87 58 -14 10 -33 19 -43 19 -11 0 -19 3 -19 8 0 20 -370 182 -417 182 -10 0 -47 9 -83 20 -221 68 -584 68 -885 -1 -113 -25 -227 -59 -240 -70 -5 -5 -17 -9 -27 -9 -32 0 -299 -124 -368 -171 -14 -9 -47 -29 -74 -45 -88 -52 -109 -68 -265 -201 -106 -91 -148 -133 -236 -239 -101 -121 -125 -152 -125 -162 0 -5 -7 -15 -15 -22 -7 -6 -28 -37 -46 -68 -17 -31 -35 -59 -39 -62 -4 -3 -18 -27 -32 -55 -14 -27 -32 -63 -41 -80 -69 -132 -124 -283 -173 -475 -43 -167 -59 -369 -50 -642 7 -205 22 -298 86 -523 40 -140 144 -377 218 -495 162 -257 283 -399 482 -567 54 -45 97 -79 111 -88 9 -5 54 -35 100 -66 46 -30 105 -66 132 -80 26 -13 47 -27 47 -31 0 -5 7 -8 15 -8 8 0 45 -15 83 -34 106 -54 311 -126 442 -156 258 -58 551 -76 755 -46 215 31 251 38 361 72 61 19 116 34 122 34 7 0 35 11 64 25 29 13 77 34 107 45 30 12 66 29 80 38 14 10 42 26 61 35 64 33 219 133 235 152 6 6 22 18 36 26 41 23 142 91 164 111 103 94 241 244 267 290 18 31 19 39 8 53 -16 19 -168 125 -180 125 -4 0 -14 7 -21 16 -7 9 -56 45 -109 80 -91 62 -261 177 -308 210 -21 16 -24 15 -65 -22 -23 -21 -46 -43 -52 -49 -38 -43 -252 -214 -310 -247 -58 -34 -235 -118 -248 -118 -8 0 -47 -11 -88 -25 -201 -69 -575 -69 -797 0 -102 32 -254 98 -299 132 -17 12 -38 23 -46 23 -9 0 -17 4 -19 8 -1 4 -30 27 -63 51 -33 23 -63 49 -68 57 -4 8 -13 14 -18 14 -14 0 -179 165 -179 179 0 5 -6 14 -14 18 -12 7 -86 108 -110 152 -5 9 -13 23 -18 31 -4 8 -18 35 -29 60 -61 127 -81 175 -88 213 -5 23 -19 78 -31 122 -19 67 -24 113 -28 277 -5 228 3 281 69 498 11 33 17 49 69 160 65 141 174 288 299 404 24 23 56 52 70 66 14 14 33 30 42 35 63 41 147 97 164 109 10 9 25 16 32 16 6 0 34 13 60 28 27 16 60 31 73 35 14 3 66 19 115 36 184 61 454 83 600 47 39 -9 81 -19 95 -22 62 -13 393 -181 453 -231 16 -13 35 -23 42 -23 7 0 15 -4 17 -8 2 -5 31 -28 64 -51 34 -22 67 -48 74 -56 7 -8 17 -15 22 -15 5 0 33 -20 61 -44 29 -25 94 -79 145 -121 50 -42 92 -81 92 -86 0 -5 5 -9 12 -9 6 0 29 -18 52 -40 107 -103 398 -395 456 -457 36 -39 90 -96 121 -129 31 -32 118 -129 194 -214 76 -85 151 -168 166 -185 15 -16 56 -61 91 -98 52 -57 254 -261 334 -338 12 -12 30 -26 41 -32 11 -7 53 -34 94 -61 75 -50 238 -136 258 -136 6 0 39 -12 74 -26 34 -14 82 -29 107 -34 25 -5 99 -20 165 -35 164 -36 393 -39 535 -7 135 31 178 42 240 65 30 10 77 25 103 33 27 7 76 27 109 44 34 16 65 30 71 30 5 0 29 14 54 30 24 17 48 30 53 30 13 0 160 112 160 122 0 4 6 8 12 8 7 0 63 52 124 115 136 141 252 305 315 445 11 25 26 59 34 75 9 17 33 89 56 160 87 280 91 648 10 909 -17 54 -31 108 -31 119 0 25 -28 104 -47 132 -7 11 -13 26 -13 34 0 7 -16 36 -35 62 -19 27 -35 56 -35 63 0 8 -5 18 -10 21 -6 4 -26 32 -46 63 -20 31 -42 64 -50 72 -7 8 -46 53 -86 100 -40 47 -77 87 -82 89 -5 2 -27 20 -47 40 -73 69 -88 81 -246 186 -29 19 -57 35 -63 35 -6 0 -29 12 -52 28 -23 15 -66 36 -97 47 -68 24 -71 39 -15 97 22 24 96 104 163 178 68 74 138 149 155 166 17 17 60 63 96 103 36 40 92 101 125 135 33 35 89 96 125 136 36 39 77 84 91 98 15 15 98 106 185 202 87 96 165 180 174 187 13 10 15 81 18 587 l3 576 40 0 c38 0 47 -7 394 -356 l355 -356 0 -2668 0 -2669 -1035 -1035 -1036 -1036 -2138 0 -2138 0 -1937 1937 -1936 1936 0 542 0 543 1581 1581 1581 1581 3109 0 c3034 0 3109 0 3092 -19z m857 -281 c0 -165 -2 -300 -3 -300 -2 0 -139 135 -304 300 l-299 300 303 0 303 0 0 -300z m559 -121 l421 -421 0 -371 c0 -204 -2 -368 -5 -366 -2 2 -212 211 -465 463 l-460 460 0 328 0 328 44 0 44 0 421 -421z m421 49 c0 -204 -2 -369 -5 -367 -2 2 -170 169 -373 372 l-368 367 373 0 373 0 0 -372z m-460 -858 l460 -461 0 -1689 0 -1689 -448 -448 c-247 -246 -456 -454 -465 -462 -16 -13 -17 151 -17 2598 0 1436 2 2611 5 2611 3 0 212 -207 465 -460z m1922 -1074 c1368 -1368 1388 -1389 1371 -1409 -34 -39 -2783 -2787 -2788 -2787 -3 0 -5 308 -5 684 l0 683 870 870 c479 478 870 876 870 884 0 8 -392 405 -870 883 l-870 869 0 370 c0 343 1 368 17 356 9 -8 641 -639 1405 -1403z m-585 -264 c442 -441 803 -807 803 -812 0 -8 -1581 -1594 -1623 -1629 -16 -13 -17 91 -17 1629 0 1541 1 1642 17 1629 9 -8 378 -375 820 -817z m-12127 135 l0 -682 -290 -291 c-159 -160 -290 -297 -290 -303 0 -7 131 -143 290 -302 l290 -290 -2 -370 -3 -370 -462 463 -463 462 0 724 0 723 459 460 c253 252 462 459 465 459 3 0 6 -307 6 -683z m-972 -1297 l-3 -341 -335 336 c-184 184 -337 337 -339 340 -1 2 149 156 335 342 l339 338 3 -337 c1 -185 1 -490 0 -678z m970 -216 l-3 -247 -243 243 -242 244 27 29 c16 16 125 126 243 245 l215 215 3 -241 c1 -132 1 -352 0 -488z m2 -2689 l0 -1485 -465 0 -465 0 0 1950 0 1951 465 -466 465 -465 0 -1485z m2872 -538 l946 -947 -372 0 -372 0 -1512 1512 -1512 1512 0 373 0 372 938 -938 c515 -515 1363 -1363 1884 -1884z m8378 1308 l0 -685 -460 -460 c-253 -253 -462 -460 -465 -460 -3 0 -5 308 -5 683 l0 684 462 461 c254 254 463 462 465 462 2 0 3 -308 3 -685z m-9007 -1527 l727 -728 -1460 0 -1460 0 0 1460 0 1460 733 -733 c402 -402 1059 -1059 1460 -1459z m8027 547 l0 -685 -294 -295 -295 -295 -689 0 -689 0 976 979 c537 538 979 979 984 980 4 0 7 -307 7 -684z m980 -900 l0 -1085 -1087 0 -1088 0 330 330 330 330 292 0 293 0 0 293 0 292 462 463 c255 254 464 462 465 462 2 0 3 -488 3 -1085z m-983 -372 c-2 -2 -111 -2 -241 -1 l-237 3 238 238 238 238 3 -237 c1 -130 1 -239 -1 -241z m-6917 -383 l329 -330 -1814 0 -1815 0 0 330 0 330 1485 0 1485 0 330 -330z m849 0 l329 -330 -372 0 -372 0 -324 325 c-179 179 -327 328 -329 330 -2 3 163 5 367 5 l372 0 329 -330z m3925 308 c-10 -12 -158 -160 -327 -330 l-308 -308 -1428 0 -1428 0 -304 304 c-167 167 -315 316 -328 330 l-24 26 2083 0 2083 0 -19 -22z m1485 5 c-8 -10 -155 -158 -326 -330 l-313 -313 -688 0 -689 0 326 329 326 328 689 2 c652 1 688 0 675 -16z m-4320 -1404 c391 -391 711 -714 711 -719 0 -10 -360 -373 -366 -368 -2 2 -408 407 -902 901 l-898 897 372 0 373 0 710 -711z m1465 26 c-377 -377 -689 -685 -693 -685 -5 0 -317 308 -693 685 l-685 685 1378 0 1378 0 -685 -685z m1634 153 c-293 -293 -770 -770 -1059 -1060 l-527 -527 -341 341 c-188 188 -340 345 -338 351 1 5 322 328 711 718 l709 709 689 0 689 0 -533 -532z"/>
 </g>
<g id="layer102" fill="#215768" stroke="none">
 <path d="M6731 12965 l-1815 -1815 -688 0 c-598 0 -693 -2 -718 -15 -17 -9 -30 -22 -30 -30 0 -13 88 -15 688 -15 l688 0 -1530 -1531 -1531 -1530 -3 691 c-2 672 -3 690 -21 681 -10 -6 -22 -18 -25 -27 -4 -9 -6 -328 -6 -708 l0 -691 -290 -291 c-159 -160 -290 -297 -290 -303 0 -7 130 -143 290 -302 l290 -290 0 -383 c0 -358 1 -384 18 -399 10 -10 22 -17 25 -17 4 0 8 168 9 373 l3 372 2237 -2238 2237 -2237 -378 2 c-251 2 -377 0 -374 -7 26 -47 11 -45 419 -45 l383 0 1105 -1105 c607 -608 1110 -1105 1118 -1105 7 0 510 497 1118 1105 l1105 1105 1132 0 1133 0 0 1133 0 1133 1450 1449 c797 798 1450 1457 1450 1465 0 8 -653 667 -1450 1465 l-1450 1449 0 423 0 423 -423 0 -423 0 -1815 1815 c-998 998 -1816 1815 -1819 1815 -3 0 -821 -817 -1819 -1815z m3589 -46 c968 -969 1759 -1764 1756 -1766 -3 -3 -170 -5 -371 -4 -207 1 -365 -2 -365 -7 0 -5 11 -19 24 -31 23 -22 25 -22 357 -21 184 1 355 1 381 1 l46 -1 421 -421 421 -421 0 -382 c0 -369 1 -384 20 -401 20 -18 20 -16 22 360 l3 378 1403 -1403 c1382 -1382 1402 -1403 1385 -1423 -10 -12 -641 -644 -1403 -1406 l-1385 -1386 -3 694 c-2 692 -2 694 -22 676 -20 -18 -20 -32 -20 -717 l0 -698 -1140 -1140 -1139 -1140 -699 0 c-751 0 -708 3 -735 -45 -3 -7 229 -9 689 -7 l695 2 -533 -532 c-293 -293 -770 -770 -1059 -1060 l-527 -527 -1060 1059 -1059 1060 1384 0 c1257 0 1386 1 1408 16 14 9 25 20 25 25 0 5 -609 9 -1434 9 l-1434 0 -2291 2292 -2291 2291 0 542 0 543 1581 1581 1581 1581 3116 2 c1715 0 3143 0 3175 -1 61 -3 69 5 36 35 -21 19 -91 19 -3142 24 l-3120 5 1762 1763 c969 969 1766 1762 1771 1762 5 0 801 -793 1770 -1761z m2670 -2201 c0 -204 -2 -369 -5 -367 -2 2 -170 169 -373 372 l-368 367 373 0 373 0 0 -372z m-11252 -3574 l-3 -246 -243 242 -243 243 28 30 c16 16 125 126 243 245 l215 215 3 -241 c1 -132 1 -352 0 -488z m11249 -4881 c-2 -2 -491 -2 -1086 -1 l-1082 3 1083 1083 1083 1083 3 -1082 c1 -595 1 -1084 -1 -1086z"/>
 <path d="M12990 7710 c0 -1702 0 -1703 20 -1685 20 18 20 31 20 1685 0 1654 0 1667 -20 1685 -20 18 -20 17 -20 -1685z"/>
 <path d="M1740 10293 l0 -856 25 23 25 23 0 804 0 803 799 0 c792 0 798 0 825 21 14 11 26 25 26 30 0 5 -334 9 -850 9 l-850 0 0 -857z"/>
 <path d="M1740 4080 l0 -1870 1870 0 c1165 0 1870 4 1870 9 0 6 -10 17 -22 25 -20 14 -212 16 -1845 16 l-1823 0 0 1821 c0 1160 -4 1827 -10 1838 -5 10 -16 21 -25 25 -13 5 -15 -191 -15 -1864z"/>
 </g>
<g id="layer103" fill="#1d778a" stroke="none">
 <path d="M6731 12965 l-1815 -1815 -692 0 c-684 0 -692 0 -718 -21 -14 -11 -26 -25 -26 -30 0 -5 272 -9 688 -9 l688 0 -1530 -1531 -1531 -1530 -3 685 c-1 377 -6 686 -11 686 -4 0 -15 -8 -24 -18 -16 -17 -17 -81 -17 -713 l0 -695 -290 -290 c-159 -160 -290 -297 -290 -303 0 -7 130 -143 290 -302 l290 -290 0 -384 0 -384 23 -16 22 -15 5 372 5 373 2237 -2237 2237 -2238 -375 0 c-228 0 -374 -4 -374 -9 0 -6 10 -17 22 -25 19 -14 74 -16 400 -16 l377 0 1105 -1105 c607 -608 1110 -1105 1118 -1105 7 0 510 497 1118 1105 l1105 1105 1132 0 1133 0 0 1133 0 1133 1450 1449 c797 798 1450 1457 1450 1465 0 8 -653 667 -1450 1465 l-1450 1449 0 423 0 423 -423 0 -424 0 -1814 1815 c-998 998 -1816 1815 -1819 1815 -3 0 -821 -817 -1819 -1815z m3589 -46 c968 -969 1759 -1764 1756 -1766 -3 -3 -168 -5 -366 -4 -318 2 -360 0 -360 -13 0 -9 11 -23 24 -31 21 -14 68 -16 353 -15 180 1 349 1 375 1 l46 -1 421 -421 421 -421 0 -382 c0 -369 1 -384 20 -401 20 -18 20 -16 22 360 l3 378 1403 -1403 c1382 -1382 1402 -1403 1385 -1423 -10 -12 -641 -644 -1403 -1406 l-1385 -1386 -3 689 c-2 687 -2 689 -22 671 -20 -18 -20 -32 -20 -712 l0 -693 -790 -793 c-435 -435 -794 -795 -798 -799 -4 -4 -161 -160 -349 -348 l-343 -340 -693 0 -694 0 -23 -25 -23 -25 689 -2 690 -3 -1057 -1057 -1057 -1057 -342 341 c-187 188 -351 346 -362 352 -12 6 -26 20 -32 31 -6 11 -320 329 -697 707 l-686 688 1381 0 c1234 0 1384 2 1404 16 12 8 22 19 22 25 0 5 -540 9 -1429 9 l-1429 0 -329 330 c-182 182 -335 330 -341 330 -6 0 -19 12 -29 28 -9 15 -887 897 -1950 1961 l-1933 1934 0 542 0 543 1581 1581 1581 1581 3116 2 c1715 1 3143 0 3175 -1 55 -3 58 -2 49 16 -6 10 -21 24 -34 31 -18 10 -702 13 -3132 15 l-3109 2 1762 1763 c969 969 1766 1762 1771 1762 5 0 801 -792 1770 -1761z m2670 -2201 c0 -204 -2 -369 -5 -367 -2 2 -170 169 -373 372 l-368 367 373 0 373 0 0 -372z m-11252 -3574 l-3 -246 -243 242 -243 243 28 30 c16 16 125 126 243 245 l215 215 3 -241 c1 -132 1 -352 0 -488z m11252 -3799 l0 -1085 -1087 0 -1088 0 328 328 c180 180 327 332 327 339 0 6 15 21 33 32 39 24 496 484 520 524 10 15 23 27 30 27 6 0 219 207 472 460 253 253 461 460 462 460 2 0 3 -488 3 -1085z"/>
 <path d="M12990 7704 c0 -1696 0 -1697 20 -1679 20 18 20 31 20 1684 0 1655 0 1666 -20 1679 -20 12 -20 10 -20 -1684z"/>
 <path d="M1740 10300 c0 -526 4 -850 9 -850 6 0 17 10 25 22 14 20 16 114 16 820 l0 798 795 0 c716 0 798 2 820 16 14 9 25 23 25 30 0 12 -132 14 -845 14 l-845 0 0 -850z"/>
 <path d="M1740 4082 l0 -1872 1865 0 c1026 0 1865 4 1865 8 0 5 -8 16 -18 25 -17 16 -159 17 -1840 17 l-1822 0 0 333 c0 182 0 1003 0 1823 l0 1490 -25 24 -25 24 0 -1872z"/>
 </g>
<g id="layer104" fill="#17a2b8" stroke="none">
 <path d="M8341 14576 c-112 -112 -208 -214 -215 -227 -6 -13 -23 -30 -36 -36 -31 -16 -2470 -2455 -2470 -2471 0 -6 -19 -25 -42 -41 -24 -17 -182 -170 -353 -341 l-309 -310 -692 0 -691 0 -29 -27 -29 -28 691 -3 690 -2 -1530 -1531 -1531 -1530 -3 685 c-1 418 -6 686 -12 686 -5 0 -16 -10 -24 -22 -14 -20 -16 -104 -16 -713 l0 -691 -290 -291 c-159 -159 -290 -295 -290 -302 0 -7 130 -142 290 -302 l290 -290 0 -378 c0 -353 1 -379 18 -394 10 -10 22 -17 25 -17 4 0 7 166 7 370 l0 369 1890 -1887 c1040 -1038 1902 -1898 1915 -1912 14 -14 171 -172 349 -352 l324 -328 -376 0 -375 0 23 -25 23 -25 378 0 378 0 712 -712 c392 -392 721 -717 733 -723 11 -6 25 -20 31 -31 16 -31 731 -744 747 -744 7 0 510 497 1118 1105 l1105 1105 1132 0 1133 0 0 1133 0 1133 1450 1449 c797 798 1450 1457 1450 1465 0 8 -653 667 -1450 1464 l-1450 1450 0 423 0 423 -423 0 -423 0 -54 55 c-30 31 -66 61 -80 68 -13 6 -30 22 -36 35 -16 32 -438 455 -491 493 -24 16 -43 35 -43 42 0 10 -2919 2937 -2930 2937 -3 0 -97 -92 -209 -204z m1633 -1308 c779 -777 1427 -1424 1441 -1438 14 -14 152 -153 307 -310 155 -157 290 -289 301 -295 11 -5 28 -23 37 -40 13 -24 14 -32 4 -42 -15 -16 -40 -17 -49 -3 -7 11 -665 14 -665 3 0 -4 10 -17 22 -30 l21 -23 304 0 c222 0 309 3 323 12 15 10 22 10 32 0 6 -6 31 -12 54 -12 l42 0 421 -421 421 -420 0 -378 c0 -364 1 -379 20 -396 20 -18 20 -16 22 355 l3 374 1403 -1404 c1383 -1383 1402 -1403 1385 -1423 -10 -12 -641 -644 -1403 -1406 l-1385 -1386 -3 689 c-2 687 -2 689 -22 671 -20 -18 -20 -32 -20 -711 l0 -694 -462 -462 c-255 -255 -468 -472 -473 -483 -6 -11 -19 -24 -30 -30 -26 -13 -600 -588 -608 -608 -3 -9 -18 -24 -34 -34 -15 -10 -173 -163 -350 -340 l-322 -323 -692 0 c-630 0 -694 -1 -711 -17 -10 -9 -18 -20 -18 -24 0 -5 307 -10 683 -11 l683 -3 -1057 -1057 -1057 -1057 -339 337 c-186 186 -351 346 -366 355 -15 10 -31 26 -34 35 -4 9 -316 326 -694 705 l-687 687 1382 0 1383 0 23 25 23 25 -1430 0 -1431 0 -327 327 c-179 180 -336 332 -347 337 -12 6 -26 20 -32 31 -6 11 -881 890 -1943 1954 l-1933 1934 0 542 0 543 1581 1581 1581 1581 3104 0 c2227 0 3111 3 3126 11 14 8 23 8 31 0 13 -13 77 -15 77 -3 0 5 -10 18 -23 30 l-23 22 -3113 2 -3113 3 321 325 c176 179 332 336 346 350 14 14 567 567 1230 1230 663 663 1216 1216 1230 1230 223 222 398 390 405 390 5 0 646 -636 1424 -1412z m3016 -2550 c0 -204 -2 -369 -5 -367 -2 2 -170 169 -373 372 l-368 367 373 0 373 0 0 -372z m-11252 -3573 l-3 -247 -220 220 c-121 121 -230 231 -243 244 l-23 25 243 243 243 243 3 -241 c1 -132 1 -352 0 -487z m11249 -4882 c-2 -2 -491 -2 -1086 -1 l-1082 3 320 320 c177 176 321 324 321 329 0 14 41 56 54 56 14 0 496 483 496 496 0 13 45 56 51 50 3 -3 211 202 464 455 l460 460 3 -1082 c1 -595 1 -1084 -1 -1086z"/>
 <path d="M12990 7710 c0 -1692 0 -1693 20 -1675 20 18 20 31 20 1675 0 1644 0 1657 -20 1675 -20 18 -20 17 -20 -1675z"/>
 <path d="M1740 10298 l1 -853 24 28 25 28 0 795 0 794 794 0 c787 0 793 0 820 21 14 11 26 25 26 30 0 5 -332 9 -845 9 l-845 0 0 -852z"/>
 <path d="M1740 4075 l0 -1865 1866 0 c1776 0 1866 1 1853 17 -8 10 -18 21 -24 25 -5 4 -828 8 -1827 8 l-1818 0 0 328 c0 224 -3 331 -11 339 -8 8 -8 17 0 31 8 15 11 443 11 1479 -1 1411 -1 1459 -19 1481 -11 12 -22 22 -25 22 -3 0 -6 -839 -6 -1865z"/>
 </g>

</svg>